<?xml version="1.0" encoding="UTF-8"?>
<svg
  id="Layer_2"
  xmlns="http://www.w3.org/2000/svg"
	xmlns:svg="http://www.w3.org/2000/svg"
	version="1.1"
	width="500"
  viewBox="0 0 189.37 43.91"
>
  <defs>
    <style>
      .cls-1, .cls-2, .cls-3 {
        fill: #FFFFFF;
      }

      .cls-4 {
        stroke-linecap: round;
      }

      .cls-4, .cls-5 {
        fill: none;
      }

      .cls-4, .cls-5, .cls-6, .cls-2, .cls-3 {
        stroke: #FFFFFF;
        stroke-miterlimit: 10;
      }

      .cls-4, .cls-5, .cls-3 {
        stroke-width: .68px;
      }

      .cls-6 {
        fill: #000000;
        stroke-width: .54px;
      }

      .cls-2 {
        stroke-width: .34px;
      }
    </style>
  </defs>
  <g>
    <path class="cls-1" d="M48.64,34.62l1.04-1.68c1.2.92,2.96,1.52,4.52,1.56,1.92,0,4.2-.88,4.12-3.08-.04-1.72-1.6-2.24-2.92-2.76-.52-.2-1.08-.44-1.64-.6-1.08-.4-2.2-.8-3.12-1.52-.96-.68-1.68-1.68-1.68-3.32,0-3.36,3-5.2,6.12-5.2,1.8,0,3.48.6,5.08,1.48l-1.08,1.72c-1.32-.76-2.56-1.12-3.84-1.16-1.68,0-3.52.88-3.56,2.76,0,1,.6,1.56,1.52,1.96.88.4,2.08.88,3.2,1.32,1.08.44,2.2.84,3.12,1.56.96.76,1.68,1.8,1.68,3.4-.04,3.76-3.6,5.52-6.96,5.52-2.04,0-4.08-.8-5.6-1.96Z"/>
    <path class="cls-1" d="M64,27.54c0-3.28,1.36-6.52,3.8-8.2,2.44-1.68,6.16-1.56,8.92.16l-.84,1.56c-1.2-.56-2.84-1.04-4.2-.96-3.16.16-4.72,4.12-4.72,7.44s1.68,6.92,5,6.96c1.88.04,3.24-.64,4.84-1.4l.76,1.52c-1.72,1.12-3.88,1.84-6.44,1.84-4.48-.04-7.12-4.52-7.12-8.92Z"/>
    <path class="cls-1" d="M83.8,36.1h-2.92V10.87s4.76,0,7.96-.04c4.04.04,7.12,3,7.16,6.8,0,3.84-2.88,6.68-6.72,6.68h-5.48v11.8ZM88.48,12.95h-4.68v9.36h4.6c2.76,0,4.64-1.96,4.64-4.76,0-2.36-2.04-4.6-4.56-4.6Z"/>
    <path class="cls-1" d="M106.2,18.14c5.04.04,8,4.16,8.04,8.88,0,4.84-2.64,9.4-8.08,9.44-5.4-.04-7.96-4.6-7.96-9.44s3-8.84,8-8.88ZM101.4,27.02c0,3.36,1.08,7.6,4.84,7.64,4.08-.12,4.8-4.28,4.8-7.64,0-3.16-1.12-6.68-4.88-6.88-4,.24-4.8,3.72-4.8,6.88h.04Z"/>
    <path class="cls-1" d="M125.8,20.34c-1.92,0-3.24.72-4.28,1.6v14.16h-2.92v-14.56c1.08-1.2,2.52-2.16,4.16-2.72,1.76-.64,3.44-1.04,5.88-.6-.36.72-.84,1.64-1.16,2.36-.56-.12-1.24-.24-1.64-.24h-.04Z"/>
    <path class="cls-1" d="M130.36,20.46v-1.88h2v-4.88l2.92-1.04v5.92h3.28v1.88h-3.28v11.4c0,2.32,1.24,2.88,3.28,2.96v1.52c-3.88.36-6.2-1.4-6.2-4.4v-11.48h-2Z"/>
    <path class="cls-1" d="M149.96,20.34c-1.92,0-3.24.72-4.28,1.6v14.16h-2.92v-14.56c1.08-1.2,2.52-2.16,4.16-2.72,1.76-.64,3.44-1.04,5.88-.6-.36.72-.84,1.64-1.16,2.36-.56-.12-1.24-.24-1.64-.24h-.04Z"/>
    <path class="cls-1" d="M160.64,36.42c-3.16-.08-5.76-2.6-5.68-5.8.04-3.4,2.68-5.48,6.04-5.44h4.76v-1.72c0-2-1.84-3.36-3.8-3.36-1.76,0-3.04.44-4.6,1.24l-.72-1.68c2.08-1.12,3.68-1.52,6.08-1.52,2.92,0,5.8,1.92,5.8,5.16v10.12c-1.68,1.68-4.4,3.04-7.88,3ZM165.68,27.02c-.92,0-2.4,0-3.84.04-2.24,0-3.92,1.28-3.92,3.48,0,2,1.68,3.92,4,3.92,1.68.04,3.24-.88,3.76-1.44v-6Z"/>
    <path class="cls-1" d="M173.4,12.47c0-1.04.84-1.88,1.92-1.88s1.88.84,1.88,1.92-.84,1.88-1.92,1.88-1.88-.84-1.88-1.88v-.04ZM173.88,19.1l2.88-.96v17.96h-2.88v-17Z"/>
    <path class="cls-1" d="M180.76,20.46v-1.88h2v-4.88l2.92-1.04v5.92h3.28v1.88h-3.28v11.4c0,2.32,1.24,2.88,3.28,2.96v1.52c-3.88.36-6.2-1.4-6.2-4.4v-11.48h-2Z"/>
  </g>
  <g>
    <polygon class="cls-6" points="23.74 36.58 .41 43.24 .41 .68 23.74 7.33 23.74 36.58"/>
    <polygon class="cls-6" points="28.49 36.58 5.15 43.24 5.15 .68 28.49 7.33 28.49 36.58"/>
    <polygon class="cls-6" points="33.23 36.58 9.89 43.24 9.89 .68 33.23 7.33 33.23 36.58"/>
    <g>
      <polygon class="cls-6" points="37.97 36.58 14.63 43.24 14.63 .68 37.97 7.33 37.97 36.58"/>
      <g>
        <path class="cls-5" d="M21.14,22.77c-1.19-2.24-3.03-4.36-3.14-7.23-.12-3.03,1.89-5.22,3.91-5.62,1.03-.2,2.12-.05,3.06.64.72.52,1.32,1.33,1.96,1.96,1.69,1.68,3.68,2.15,5.28,1.35.8-.4,1.62-1.1,2.38-.52.89.67,1.15,2.83.75,4.25-.4,1.45-1.26,2.37-2.11,3.21s-1.83,1.8-2.37,3.34c-.77,2.21-.49,5.14-1.5,7.22-.63,1.29-1.66,2.03-2.69,2.42-.71.27-1.48.39-2.16.05-1.44-.74-1.41-2.77-1.59-4.69-.21-2.3-.77-4.49-1.79-6.4Z"/>
        <path class="cls-2" d="M26.51,28.35l-1.35.95c-.23.17-.5.03-.6-.31h0c-.1-.34.02-.74.26-.9l1.37-.93c.23-.15.48-.01.57.32h0c.09.33-.02.72-.24.87Z"/>
        <path class="cls-2" d="M27.4,30.75l-1.38-.29c-.24-.05-.39-.39-.33-.75h0c.06-.36.3-.61.53-.56l1.37.32c.23.05.37.38.31.73h0c-.05.35-.28.6-.51.55Z"/>
        <path class="cls-2" d="M27.52,28.23l-.31-2.03c-.05-.35.09-.7.32-.79h0c.23-.09.45.11.5.45l.3,2.01c.05.34-.09.69-.31.8h0c-.22.1-.45-.09-.5-.43Z"/>
        <path class="cls-3" d="M28.55,20.16c0,1.89-1,3.44-2.29,3.47s-2.47-1.6-2.47-3.63,1.13-3.59,2.47-3.47,2.29,1.74,2.29,3.63Z"/>
        <g>
          <path class="cls-4" d="M21.11,12.5c.46-.57.96-1.04,1.51-1.39"/>
          <path class="cls-4" d="M19.77,14.9c.23-.6.5-1.14.8-1.64"/>
          <path class="cls-4" d="M20.15,17c.4-1.88,1.24-3.39,2.3-4.35"/>
          <path class="cls-4" d="M21.89,15.01c.75-1.3,1.81-2.13,2.96-2.32"/>
          <path class="cls-4" d="M20.81,20.02c-.03-.56-.02-1.13.05-1.71.09-.76.25-1.47.48-2.11"/>
          <path class="cls-4" d="M21.67,19.17c0-.21.02-.42.05-.63.2-1.78.92-3.2,1.88-4.01"/>
          <path class="cls-4" d="M24.24,14.09c.48-.24,1-.35,1.53-.28"/>
          <path class="cls-4" d="M22.57,20.44c-.07-.54-.08-1.11-.02-1.68s.19-1.1.38-1.58"/>
          <path class="cls-4" d="M23.4,16.27c.73-1.09,1.8-1.59,2.88-1.22.24.08.47.2.69.36"/>
        </g>
        <g>
          <path class="cls-1" d="M33.87,15.31c.06.26-.01.54-.16.63s-.32-.06-.38-.32.01-.55.16-.63.32.06.38.32Z"/>
          <path class="cls-1" d="M33.49,15.89c.05.27-.05.54-.2.6s-.33-.11-.37-.38.05-.54.21-.6.32.12.37.39Z"/>
          <path class="cls-1" d="M33.06,16.42c.03.28-.08.53-.24.56s-.32-.16-.36-.44.08-.53.25-.57.32.17.35.44Z"/>
          <path class="cls-1" d="M32.58,16.89c.01.28-.11.52-.28.52s-.32-.22-.33-.5.11-.52.28-.52.32.22.33.5Z"/>
          <path class="cls-1" d="M32.06,17.28c0,.28-.15.49-.32.47s-.31-.27-.31-.56.15-.5.33-.47.31.28.3.56Z"/>
          <path class="cls-1" d="M31.5,17.57c-.03.28-.19.46-.37.4s-.3-.34-.27-.62.2-.46.37-.4.29.34.26.62Z"/>
          <path class="cls-1" d="M30.93,17.75c-.06.27-.24.41-.41.3s-.27-.41-.21-.68.24-.41.42-.3.26.41.21.68Z"/>
          <path class="cls-1" d="M30.35,17.77c-.09.25-.29.32-.45.17s-.22-.49-.13-.74.3-.32.46-.16.21.48.13.73Z"/>
        </g>
        <g>
          <path class="cls-1" d="M30.54,15.33c.09.26.03.58-.13.7s-.36.01-.45-.25-.03-.58.13-.71.36,0,.45.26Z"/>
          <path class="cls-1" d="M30.55,16.43c.05.29-.05.57-.23.63s-.36-.12-.41-.41.06-.57.23-.63.36.13.41.41Z"/>
          <path class="cls-1" d="M30.39,17.48c0,.29-.14.53-.32.52s-.34-.25-.35-.54.14-.53.32-.52.34.25.34.54Z"/>
          <path class="cls-1" d="M30.09,18.44c-.04.28-.22.46-.4.38s-.3-.37-.26-.65.22-.46.4-.38.3.37.26.65Z"/>
        </g>
        <g>
          <path class="cls-1" d="M34.78,17.19c0,.27-.13.48-.28.46s-.29-.25-.29-.52.13-.48.29-.46.28.25.28.52Z"/>
          <path class="cls-1" d="M34.26,17.32c0,.27-.13.48-.29.47s-.29-.25-.29-.52.13-.49.29-.47.29.25.29.52Z"/>
          <path class="cls-1" d="M33.76,17.6c0,.27-.13.49-.29.48s-.3-.25-.3-.53.13-.49.3-.48.29.25.29.53Z"/>
          <path class="cls-1" d="M33.29,18.02c0,.28-.13.49-.3.48s-.3-.25-.3-.53.14-.5.3-.48.3.25.3.53Z"/>
          <path class="cls-1" d="M32.85,18.57c0,.28-.14.5-.3.49s-.31-.25-.31-.53.14-.5.31-.49.3.25.3.53Z"/>
          <path class="cls-1" d="M32.47,19.24c0,.28-.14.5-.31.5s-.31-.24-.31-.53.14-.51.31-.5.31.25.31.53Z"/>
          <path class="cls-1" d="M32.11,19.96c0,.28-.14.51-.31.5s-.32-.24-.32-.53.14-.51.32-.5.31.24.31.53Z"/>
          <path class="cls-1" d="M31.73,20.66c0,.29-.14.51-.32.51s-.32-.24-.32-.53.14-.52.32-.51.32.24.32.53Z"/>
          <path class="cls-1" d="M31.25,21.19c0,.29-.14.52-.32.52s-.33-.24-.33-.53.15-.52.33-.52.32.24.32.53Z"/>
          <path class="cls-1" d="M30.67,21.27c0,.29-.15.52-.33.52s-.33-.24-.33-.53.15-.53.33-.52.33.24.33.53Z"/>
        </g>
      </g>
    </g>
  </g>
</svg>